<?xml version="1.0" encoding="iso-8859-1"?>
<!-- Generator: Adobe Illustrator 16.0.0, SVG Export Plug-In . SVG Version: 6.00 Build 0)  -->
<!DOCTYPE svg PUBLIC "-//W3C//DTD SVG 1.1//EN" "http://www.w3.org/Graphics/SVG/1.1/DTD/svg11.dtd">
<svg version="1.1" id="Capa_1" xmlns="http://www.w3.org/2000/svg" xmlns:xlink="http://www.w3.org/1999/xlink" x="0px" y="0px"
	 width="383.625px" height="383.625px" viewBox="0 0 383.625 383.625" style="enable-background:new 0 0 383.625 383.625;"
	 xml:space="preserve">
<g>
	<path d="M191.493,17.023c0-4.284-3.672-7.956-7.956-7.956c-50.184-2.448-100.98,4.896-151.164,0.612
		c-2.448-1.836-6.12-2.448-8.568,0l-1.836,1.836l0,0c-3.06-5.508-11.628-1.836-9.792,4.284c7.344,31.824,3.672,64.26,2.448,96.696
		c0,13.464-7.956,50.796,8.568,60.588c18.36,10.404,46.512,11.628,66.708,13.464c28.764,3.06,61.2,2.448,88.74-8.568
		c6.732-2.448,6.732-11.016,2.448-14.688C179.865,113.107,190.269,65.983,191.493,17.023z M35.433,45.787
		c-1.224-1.836-1.836-3.672-1.224-5.508c0.612-1.224,2.448-1.836,4.284-2.448C37.269,40.892,36.045,43.339,35.433,45.787z
		 M35.433,26.203c-0.612,0-0.612,0-1.224,0.612c-1.836,0.612-4.284,1.836-6.12,3.06c-0.612-1.836-0.612-3.672-1.224-5.508
		C29.313,24.979,32.373,25.591,35.433,26.203z M148.041,88.015c0,5.508-0.612,11.016-0.612,16.524c-2.448,0-4.896,0-7.344,0
		c-7.956,0-15.912,0.612-23.868,1.836c-3.06,0.612-5.508,3.672-5.508,6.732c0,10.404-1.224,21.42,0,31.824c-1.836,0-4.284,0-6.12,0
		c-3.06,0-9.792-0.612-15.3-1.224c0-2.448,0-4.896,0-6.732c0.612-9.18,0.612-18.36,0.612-27.54c0-3.06-1.836-6.12-4.896-6.732
		c-11.628-2.448-23.868-3.672-36.108-2.448c0.612-5.508,0.612-11.016,1.224-16.524c9.792,0,19.584-1.224,29.376-0.612
		c3.06,0,6.732-2.448,6.732-5.508c1.836-10.404,2.448-20.808,3.06-31.212h0.612c6.732,0.612,14.076,0.612,20.808,0.612
		c0,9.18,0,17.748,0,26.928c0,4.284,3.672,7.344,7.344,7.344c9.792,0,19.584,0.612,29.376,0
		C148.041,84.343,148.653,86.179,148.041,88.015z M157.833,61.087c-2.448-0.612-5.508,0-7.344,2.448
		c-0.612,0.612-0.612,1.224-1.224,1.836c-0.612-0.612-1.224-1.224-1.836-1.836c0.612-0.612,0.612-0.612,0.612-1.224
		c3.06-0.612,6.12-1.836,9.18-4.284C157.833,59.863,157.833,60.476,157.833,61.087z"/>
	<path d="M379.989,16.411c-0.612-3.672-4.284-5.508-7.956-6.12C320.625,3.56,268.605,7.843,216.585,8.456
		c-3.672,0-6.119,1.836-7.344,4.284c-2.448,0.612-4.896,2.448-4.284,5.508c4.896,47.736,0,94.86,1.836,142.596
		c0,4.896,3.673,7.344,7.956,7.956c52.632,6.12,105.265,8.568,157.896,1.836c3.672-0.612,6.12-4.896,6.12-7.956
		C379.377,114.332,388.558,65.371,379.989,16.411z M299.205,106.987c-20.808-0.612-42.228-1.224-61.812,5.508
		c-0.612-4.284-0.612-7.956-0.612-12.24c0-1.224,0-3.06,0-4.284c1.836-1.224,3.061-3.672,2.448-6.12
		c-0.612-1.224-0.612-2.448-1.224-3.672c0-0.612,0-1.224,0.611-1.836c11.628,4.284,24.48,4.896,37.332,4.896
		c24.48,0.612,50.185,0.612,75.276,0c0,5.508,0.611,11.628,0.611,17.136C334.09,105.763,316.342,107.6,299.205,106.987z"/>
	<path d="M183.537,211.64c0-4.284-3.672-7.956-7.956-7.956c-29.988-0.612-59.976-6.12-90.576-5.508
		c-7.956,0-53.856,3.672-55.08,9.18c0.612-6.12-6.732-7.956-11.016-4.896c-2.448-0.611-5.508,0.612-6.12,3.672
		C1.161,258.764-1.287,312.619,0.549,366.476c0,4.896,3.672,7.344,7.956,7.956c55.692,4.896,110.772,1.836,166.464,0
		c3.672,0,6.732-2.448,7.956-6.12C195.777,316.903,182.925,264.271,183.537,211.64z M146.205,351.787c-1.224,0-2.448,0-3.672-0.611
		c0.612-0.612,1.224-1.225,1.836-1.837h0.612c1.224-0.611,1.836-1.224,3.06-1.836C148.041,349.34,147.429,350.563,146.205,351.787z
		 M148.041,265.495c-6.12,9.181-15.3,17.136-23.868,23.256c-3.06,2.448-4.896,7.345-1.224,11.017
		c6.732,6.12,14.076,12.24,22.032,17.136c-1.224,2.448-2.448,5.508-4.284,7.344c-3.06,4.284-6.12,7.956-9.18,11.628
		c-8.568-7.344-17.748-14.688-26.928-22.031c-3.06-2.448-6.732-3.061-9.18,0c-4.896,5.508-9.792,10.403-14.688,15.912
		c-5.508-3.673-12.24-7.345-17.136-10.404c-1.836-1.225-4.284-3.061-6.732-4.284c3.06-2.448,5.508-5.508,8.568-7.956
		c6.732-5.508,12.852-11.016,18.972-17.136c3.06-3.672,1.836-7.956-1.224-10.404c-9.18-7.344-19.584-14.076-29.376-19.584
		c1.224-1.224,2.448-2.448,3.672-3.672c6.12-5.508,12.852-11.628,18.972-17.748c6.12,11.628,14.688,22.032,24.48,31.212
		c3.06,3.061,8.568,2.448,11.016-1.224c4.284-8.568,10.404-15.912,15.912-23.256c2.448,1.836,4.896,4.283,7.344,6.119
		c3.672,3.061,7.344,6.732,11.016,9.792c1.224,0.612,1.836,1.837,3.06,3.061C148.653,264.884,148.653,265.495,148.041,265.495z
		 M157.221,221.432c-0.612-0.612-1.224-0.612-1.836-1.225c-3.06-1.224-5.508-1.836-8.568-2.447c3.672,0,7.956,0.611,11.628,0.611
		C157.833,218.983,157.221,220.207,157.221,221.432z"/>
	<path d="M372.646,205.52c-45.9-7.344-112.608-24.48-156.061-1.225c-1.224,0.612-2.447,1.836-3.06,2.448s-1.224,1.225-1.836,2.448
		c-14.076,47.124-0.612,95.472-7.956,143.82c-0.612,5.508,1.836,9.792,7.956,9.792c50.184,3.672,100.979,6.12,151.776,5.508
		c3.06,0,6.731-2.448,7.344-5.508c9.18-49.572,6.12-99.757,7.956-149.94C378.153,209.804,375.705,206.131,372.646,205.52z
		 M285.741,231.835c6.732-1.836,14.076-2.447,20.809-2.447c-0.612,7.344-1.837,14.688-3.673,21.42c-4.896,0-10.403,0.611-15.3,0.611
		c-2.448,0-4.284,0-6.731,0c0-0.611,0-0.611,0-1.224C279.621,241.627,275.949,234.283,285.741,231.835z M302.266,338.936
		c-7.344,0-15.3,0-22.645,0c0-3.061,0-6.12,0-9.181c0-3.06,0.612-6.731,0-10.403c7.345,1.224,15.912,1.224,23.868,1.224
		C303.489,326.695,302.877,332.815,302.266,338.936z M239.229,294.871c0-1.836,0.612-3.672,0.612-5.508
		c1.224-5.508,3.06-11.016,3.672-17.136c0,0,0,0,0-0.612c33.66,6.12,68.544,7.344,102.815,7.956c0,0.612,0,1.224,0,2.448
		c0,4.284,0,8.567,0.612,12.852C313.894,303.439,274.726,297.932,239.229,294.871z M362.241,233.06
		c-0.612-1.225-1.224-2.448-1.224-3.672c0-1.836-0.612-3.061-0.612-4.896c-0.612-3.06-3.672-4.896-6.12-4.896
		c-0.611-0.612-0.611-0.612-1.224-1.225C362.854,220.207,362.854,222.655,362.241,233.06z"/>
</g>
<g>
</g>
<g>
</g>
<g>
</g>
<g>
</g>
<g>
</g>
<g>
</g>
<g>
</g>
<g>
</g>
<g>
</g>
<g>
</g>
<g>
</g>
<g>
</g>
<g>
</g>
<g>
</g>
<g>
</g>
</svg>
